<?xml version="1.0" encoding="UTF-8" standalone="no"?>
<!-- Created with Inkscape (http://www.inkscape.org/) -->

<svg
   xmlns:dc="http://purl.org/dc/elements/1.1/"
   xmlns:cc="http://creativecommons.org/ns#"
   xmlns:rdf="http://www.w3.org/1999/02/22-rdf-syntax-ns#"
   xmlns:svg="http://www.w3.org/2000/svg"
   xmlns="http://www.w3.org/2000/svg"
   xmlns:sodipodi="http://sodipodi.sourceforge.net/DTD/sodipodi-0.dtd"
   xmlns:inkscape="http://www.inkscape.org/namespaces/inkscape"
   width="16px"
   height="16px"
   viewBox="0 0 16 16"
   version="1.1"
   id="SVGRoot"
   inkscape:version="0.92.4 (5da689c313, 2019-01-14)"
   sodipodi:docname="favicon.svg">
  <defs
     id="defs33" />
  <sodipodi:namedview
     id="base"
     pagecolor="#ffffff"
     bordercolor="#666666"
     borderopacity="1.0"
     inkscape:pageopacity="0.0"
     inkscape:pageshadow="2"
     inkscape:zoom="16"
     inkscape:cx="8"
     inkscape:cy="8"
     inkscape:document-units="px"
     inkscape:current-layer="layer1"
     showgrid="false"
     inkscape:window-width="1920"
     inkscape:window-height="1080"
     inkscape:window-x="3832"
     inkscape:window-y="2"
     inkscape:window-maximized="1"
     inkscape:grid-bbox="true" />
  <metadata
     id="metadata36">
    <rdf:RDF>
      <cc:Work
         rdf:about="">
        <dc:format>image/svg+xml</dc:format>
        <dc:type
           rdf:resource="http://purl.org/dc/dcmitype/StillImage" />
        <dc:title></dc:title>
      </cc:Work>
    </rdf:RDF>
  </metadata>
  <g
     inkscape:label="Layer 1"
     inkscape:groupmode="layer"
     id="layer1">
    <ellipse
       style="fill:#000080;stroke-width:0.36838415"
       id="path15"
       cx="7.0000277"
       cy="8.9594622"
       rx="7.8742051"
       ry="7.8503861"
       transform="matrix(0.99253838,-0.12193263,0.12790432,0.99178651,0,0)"
       inkscape:export-xdpi="1136.1003"
       inkscape:export-ydpi="1136.1003" />
    <path
       sodipodi:type="spiral"
       style="fill:#deaa87;fill-rule:evenodd;stroke:#000000;stroke-width:0.26458332"
       id="path42-4"
       sodipodi:cx="17.417923"
       sodipodi:cy="63.681892"
       sodipodi:expansion="1"
       sodipodi:revolution="3"
       sodipodi:radius="5.7134843"
       sodipodi:argument="-18.49485"
       sodipodi:t0="0"
       d="m 17.417923,63.681892 c 0.268632,0.09949 -0.0016,0.411198 -0.165365,0.446485 -0.443842,0.09562 -0.745613,-0.390506 -0.727604,-0.777214 0.03221,-0.691729 0.752657,-1.102046 1.389063,-1.008724 0.933951,0.136954 1.465835,1.118562 1.289844,2.000912 -0.23457,1.176033 -1.485649,1.832568 -2.612761,1.570963 -1.418356,-0.329202 -2.200783,-1.853259 -1.852083,-3.224609 0.422322,-1.660889 2.22116,-2.56985 3.836458,-2.133203 1.903574,0.514573 2.93945,2.589239 2.414323,4.448308 -0.60628,2.146368 -2.957437,3.309405 -5.060157,2.695442 -2.389243,-0.697624 -3.679611,-3.32572 -2.976562,-5.672006 0.788715,-2.632178 3.694064,-4.049998 6.283855,-3.257682 2.875158,0.879621 4.42052,4.062455 3.538802,6.895704"
       transform="matrix(0.1958871,-1.3615068,1.3627333,0.19571076,-82.229178,19.726939)"
       inkscape:export-xdpi="1136.1003"
       inkscape:export-ydpi="1136.1003" />
    <path
       sodipodi:type="spiral"
       style="fill:#c87137;fill-rule:evenodd;stroke:#000000;stroke-width:0.26458332"
       id="path42"
       sodipodi:cx="18.773914"
       sodipodi:cy="62.524342"
       sodipodi:expansion="1"
       sodipodi:revolution="3"
       sodipodi:radius="5.7134843"
       sodipodi:argument="-18.49485"
       sodipodi:t0="0"
       d="m 18.773914,62.524342 c 0.268633,0.09949 -0.0016,0.411197 -0.165364,0.446484 -0.443842,0.09563 -0.745614,-0.390506 -0.727604,-0.777214 0.03221,-0.691729 0.752657,-1.102045 1.389062,-1.008724 0.933951,0.136954 1.465836,1.118563 1.289844,2.000912 -0.23457,1.176033 -1.485648,1.832568 -2.612761,1.570963 -1.418356,-0.329202 -2.200783,-1.853259 -1.852083,-3.224609 0.422322,-1.660889 2.22116,-2.56985 3.836459,-2.133203 1.903574,0.514573 2.939449,2.589239 2.414322,4.448308 -0.60628,2.146368 -2.957437,3.309405 -5.060156,2.695442 -2.389244,-0.697624 -3.679611,-3.32572 -2.976562,-5.672006 0.788714,-2.632178 3.694064,-4.049997 6.283854,-3.257682 2.875159,0.879621 4.42052,4.062456 3.538802,6.895704"
       transform="matrix(0.02348099,1.3753011,-1.3765401,0.02345984,93.980647,-19.8609)"
       inkscape:export-xdpi="1136.1003"
       inkscape:export-ydpi="1136.1003" />
    <path
       sodipodi:type="spiral"
       style="fill:#d45500;fill-rule:evenodd;stroke:#000000;stroke-width:0.26458332"
       id="path42-6"
       sodipodi:cx="7.1689668"
       sodipodi:cy="8.4429646"
       sodipodi:expansion="1"
       sodipodi:revolution="3"
       sodipodi:radius="5.7134843"
       sodipodi:argument="-18.49485"
       sodipodi:t0="0"
       d="M 7.1689668,8.4429646 C 7.437599,8.542458 7.1673853,8.8541619 7.0036021,8.8894489 6.55976,8.9850745 6.2579889,8.498943 6.275998,8.1122353 6.3082121,7.4205059 7.028655,7.0101896 7.6650607,7.1035114 8.5990116,7.2404649 9.1308962,8.2220737 8.9549043,9.1044231 8.7203348,10.280456 7.4692562,10.936991 6.3421436,10.675386 4.9237874,10.346184 4.1413607,8.8221267 4.4900605,7.4507767 4.9123826,5.7898881 6.7112205,4.8809271 8.3265193,5.3175739 10.230093,5.8321469 11.265969,7.9068129 10.740842,9.7658817 10.134562,11.91225 7.7834044,13.075287 5.680685,12.461324 3.2914416,11.7637 2.0010739,9.135604 2.7041229,6.7893181 3.4928377,4.15714 6.3981873,2.7393205 8.9879778,3.5316363 11.863136,4.4112571 13.408498,7.5940916 12.526779,10.42734"
       inkscape:export-xdpi="1136.1003"
       inkscape:export-ydpi="1136.1003"
       transform="matrix(1.3767403,0,0,1.3755012,-2.74808,-2.5418227)" />
  </g>
</svg>
